<svg width="13" height="12" viewBox="0 0 13 12" fill="none" xmlns="http://www.w3.org/2000/svg">
<path d="M8.99805 10.7187C8.38086 10.9766 7.70898 11.125 6.99805 11.125C5.75586 11.125 4.62305 10.6797 3.73242 9.95312C3.73242 9.95312 3.80273 10 3.84961 10.0391C4.83398 7.89844 7.87305 6.83594 7.87305 6.83594C7.88086 6.83594 7.89648 6.82812 7.9043 6.82812C8.62305 8.70312 8.91992 10.2656 8.99805 10.7187ZM7.55273 5.97656C7.49023 6 7.41992 6.01562 7.34961 6.03906C7.34961 6.03906 4.58398 6.92969 3.18555 9.42187C2.37305 8.51562 1.87305 7.3125 1.87305 6C1.87305 5.94531 1.87305 5.89062 1.88086 5.83594C1.9668 5.83594 4.49805 5.89844 7.13867 5.10937C7.28711 5.39844 7.42773 5.6875 7.55273 5.97656ZM6.7168 4.32031C4.25586 4.96875 2.11523 4.94531 1.98242 4.94531C2.31836 3.35937 3.38086 2.03906 4.81055 1.36719C4.88086 1.46094 5.82617 2.74219 6.7168 4.32031ZM12.0605 6.8125C11.8262 8.24219 11.0137 9.47656 9.86523 10.25C9.81055 9.94531 9.53711 8.4375 8.86523 6.58594C10.5215 6.32812 11.9512 6.78125 12.0605 6.8125ZM5.77148 1.02344C5.76367 1.02344 5.75586 1.03125 5.75586 1.03125C5.76367 1.02344 5.76367 1.02344 5.77148 1.02344ZM10.3809 2.15625C10.3652 2.17969 9.63867 3.28906 7.70898 4.00781C6.83398 2.39844 5.86523 1.125 5.78711 1.02344C6.17773 0.929687 6.58398 0.874999 6.99805 0.874999C8.29492 0.874999 9.48242 1.35937 10.3809 2.15625ZM12.123 5.94531C12.0605 5.9375 10.3184 5.55469 8.55273 5.78125C8.51367 5.69531 8.48242 5.60156 8.44336 5.51562C8.33398 5.26562 8.2168 5.01562 8.09961 4.77344C10.123 3.94531 10.9434 2.75781 10.959 2.74219C11.6777 3.61719 12.1074 4.73437 12.123 5.94531ZM12.998 6C12.998 2.6875 10.3105 -5.96046e-07 6.99805 -5.96046e-07C3.68555 -5.96046e-07 0.998047 2.6875 0.998047 6C0.998047 9.3125 3.68555 12 6.99805 12C10.3105 12 12.998 9.3125 12.998 6Z" fill="white"/>
</svg>
