<svg width="13" height="12" viewBox="0 0 13 12" fill="none" xmlns="http://www.w3.org/2000/svg">
<path d="M6.99805 -5.96046e-07C3.68555 -5.96046e-07 0.998047 2.6875 0.998047 6C0.998047 8.64844 2.7168 10.8984 5.09961 11.6953C5.4043 11.75 5.51367 11.5625 5.51367 11.4063C5.51367 11.2578 5.50586 10.7891 5.50586 10.2891C5.50586 10.2891 3.83398 10.6484 3.48242 9.57812C3.48242 9.57812 3.20898 8.88281 2.81836 8.70312C2.81836 8.70312 2.27148 8.32812 2.85742 8.33594C2.85742 8.33594 3.45117 8.38281 3.7793 8.95312C4.30273 9.875 5.17773 9.60937 5.52148 9.45312C5.57617 9.07031 5.73242 8.80469 5.9043 8.64844C4.56836 8.5 3.16992 7.98437 3.16992 5.6875C3.16992 5.03125 3.4043 4.5 3.78711 4.07812C3.72461 3.92187 3.52148 3.3125 3.84961 2.48437C4.34961 2.32812 5.49805 3.10156 5.49805 3.10156C5.97461 2.96875 6.49023 2.89844 6.99805 2.89844C7.50586 2.89844 8.02148 2.96875 8.49805 3.10156C8.49805 3.10156 9.64648 2.32812 10.1465 2.48437C10.4746 3.3125 10.2715 3.92187 10.209 4.07812C10.5918 4.5 10.8262 5.03125 10.8262 5.6875C10.8262 7.99219 9.41992 8.5 8.08399 8.64844C8.30274 8.83594 8.49023 9.19531 8.49023 9.75781C8.49023 10.5625 8.48242 11.2109 8.48242 11.4063C8.48242 11.5625 8.5918 11.75 8.89648 11.6953C11.2793 10.8984 12.998 8.64844 12.998 6C12.998 2.6875 10.3105 -5.96046e-07 6.99805 -5.96046e-07ZM3.27148 8.61719C3.25586 8.64844 3.20898 8.65625 3.16992 8.63281C3.12305 8.60937 3.09961 8.57031 3.11523 8.53906C3.13086 8.51562 3.16992 8.50781 3.2168 8.52344C3.26367 8.54687 3.28711 8.58594 3.27148 8.61719ZM3.51367 8.88281C3.48242 8.91406 3.42773 8.89844 3.38867 8.85937C3.34961 8.8125 3.3418 8.75781 3.37305 8.73437C3.4043 8.70312 3.45898 8.71875 3.49805 8.75781C3.53711 8.80469 3.54492 8.85937 3.51367 8.88281ZM3.74805 9.23437C3.7168 9.25781 3.6543 9.23437 3.61523 9.17969C3.57617 9.125 3.57617 9.0625 3.61523 9.03906C3.6543 9.00781 3.7168 9.03125 3.74805 9.08594C3.78711 9.14062 3.78711 9.20312 3.74805 9.23437ZM4.07617 9.5625C4.04492 9.60156 3.97461 9.59375 3.91992 9.53906C3.86523 9.49219 3.84961 9.42187 3.88867 9.39062C3.91992 9.35156 3.99023 9.35937 4.04492 9.41406C4.0918 9.46094 4.10742 9.53125 4.07617 9.5625ZM4.52148 9.75781C4.50586 9.80469 4.43555 9.82812 4.37305 9.80469C4.30273 9.78906 4.25586 9.73437 4.27148 9.6875C4.28711 9.64062 4.35742 9.61719 4.41992 9.63281C4.49023 9.65625 4.53711 9.71094 4.52148 9.75781ZM5.01367 9.79687C5.01367 9.84375 4.95898 9.88281 4.88867 9.88281C4.81055 9.89062 4.75586 9.85156 4.75586 9.79687C4.75586 9.75 4.81055 9.71094 4.88086 9.71094C4.95117 9.70312 5.01367 9.74219 5.01367 9.79687ZM5.4668 9.71875C5.47461 9.76562 5.42773 9.8125 5.35742 9.82812C5.28711 9.84375 5.22461 9.8125 5.2168 9.76562C5.20898 9.71094 5.25586 9.66406 5.32617 9.64844C5.39648 9.64062 5.45898 9.67187 5.4668 9.71875Z" fill="white"/>
</svg>
