<svg width="14" height="10" viewBox="0 0 14 10" fill="none" xmlns="http://www.w3.org/2000/svg">
<path d="M13.1553 1.1875C12.7021 1.38281 12.21 1.52344 11.7021 1.57812C12.2256 1.26562 12.624 0.773437 12.8115 0.1875C12.3271 0.476562 11.7803 0.6875 11.21 0.796875C10.749 0.304687 10.0928 -2.38419e-07 9.36621 -2.38419e-07C7.96777 -2.38419e-07 6.84277 1.13281 6.84277 2.52344C6.84277 2.71875 6.86621 2.91406 6.90527 3.10156C4.81152 2.99219 2.94434 1.99219 1.70215 0.460937C1.4834 0.835937 1.3584 1.26562 1.3584 1.73437C1.3584 2.60937 1.80371 3.38281 2.4834 3.83594C2.06934 3.82031 1.67871 3.70312 1.34277 3.51562C1.34277 3.52344 1.34277 3.53906 1.34277 3.54687C1.34277 4.77344 2.20996 5.78906 3.36621 6.02344C3.15527 6.07812 2.92871 6.10937 2.70215 6.10937C2.53809 6.10937 2.38184 6.09375 2.22559 6.07031C2.5459 7.07031 3.47559 7.79687 4.58496 7.82031C3.71777 8.5 2.63184 8.89844 1.45215 8.89844C1.24121 8.89844 1.0459 8.89062 0.842773 8.86719C1.95996 9.58594 3.28809 10 4.71777 10C9.3584 10 11.8975 6.15625 11.8975 2.82031C11.8975 2.71094 11.8975 2.60156 11.8896 2.49219C12.3818 2.13281 12.8115 1.6875 13.1553 1.1875Z" fill="white"/>
</svg>
